<mxfile host="app.diagrams.net" agent="Mozilla/5.0 (Windows NT 10.0; Win64; x64; rv:130.0) Gecko/20100101 Firefox/130.0" version="24.7.16">
  <diagram name="ページ1" id="6O8cq4Rfigk1k-ii5kAo">
    <mxGraphModel dx="2654" dy="843" grid="1" gridSize="10" guides="1" tooltips="1" connect="1" arrows="1" fold="1" page="1" pageScale="1" pageWidth="827" pageHeight="1169" math="0" shadow="0">
      <root>
        <mxCell id="0" />
        <object label="ネットワーク" id="1">
          <mxCell style="locked=1;" parent="0" />
        </object>
        <mxCell id="4jGIObLVKQul48obEb4T-1" value="" style="endArrow=oval;html=1;rounded=0;startArrow=oval;startFill=1;endFill=1;strokeWidth=4;fillColor=#a20025;strokeColor=#6F0000;" parent="1" edge="1">
          <mxGeometry width="50" height="50" relative="1" as="geometry">
            <mxPoint x="-704" y="25" as="sourcePoint" />
            <mxPoint x="616" y="25" as="targetPoint" />
          </mxGeometry>
        </mxCell>
        <mxCell id="4jGIObLVKQul48obEb4T-2" value="10.0.0.0/24" style="text;html=1;align=center;verticalAlign=middle;resizable=0;points=[];autosize=1;strokeColor=none;fillColor=none;" parent="1" vertex="1">
          <mxGeometry x="-796" y="9" width="80" height="30" as="geometry" />
        </mxCell>
        <mxCell id="4jGIObLVKQul48obEb4T-3" value="" style="endArrow=oval;html=1;rounded=0;startArrow=oval;startFill=1;endFill=1;strokeWidth=4;fillColor=#a20025;strokeColor=#1C6EFF;" parent="1" edge="1">
          <mxGeometry width="50" height="50" relative="1" as="geometry">
            <mxPoint x="-704" y="99.5" as="sourcePoint" />
            <mxPoint x="616" y="99.5" as="targetPoint" />
          </mxGeometry>
        </mxCell>
        <mxCell id="4jGIObLVKQul48obEb4T-4" value="172.16.0.0/24" style="text;html=1;align=center;verticalAlign=middle;resizable=0;points=[];autosize=1;strokeColor=none;fillColor=none;" parent="1" vertex="1">
          <mxGeometry x="-811" y="85" width="100" height="30" as="geometry" />
        </mxCell>
        <mxCell id="4jGIObLVKQul48obEb4T-7" value="" style="endArrow=none;html=1;rounded=0;startArrow=none;startFill=0;endFill=0;strokeWidth=4;fillColor=#a20025;strokeColor=#1C6EFF;jumpStyle=arc;" parent="1" edge="1">
          <mxGeometry width="50" height="50" relative="1" as="geometry">
            <mxPoint x="-572" y="100" as="sourcePoint" />
            <mxPoint x="-572" y="180" as="targetPoint" />
          </mxGeometry>
        </mxCell>
        <mxCell id="4jGIObLVKQul48obEb4T-9" value="" style="endArrow=none;html=1;rounded=0;startArrow=none;startFill=0;endFill=0;strokeWidth=4;fillColor=#a20025;strokeColor=#6F0000;jumpStyle=arc;" parent="1" edge="1">
          <mxGeometry width="50" height="50" relative="1" as="geometry">
            <mxPoint x="487" y="26" as="sourcePoint" />
            <mxPoint x="487" y="180" as="targetPoint" />
          </mxGeometry>
        </mxCell>
        <mxCell id="9jK7fkdce40cgkQCztjO-36" value="" style="endArrow=oval;html=1;rounded=0;startArrow=oval;startFill=1;endFill=1;strokeWidth=4;fillColor=#fff2cc;strokeColor=#d6b656;" edge="1" parent="1">
          <mxGeometry width="50" height="50" relative="1" as="geometry">
            <mxPoint x="-704" y="60" as="sourcePoint" />
            <mxPoint x="616" y="60" as="targetPoint" />
          </mxGeometry>
        </mxCell>
        <mxCell id="9jK7fkdce40cgkQCztjO-43" value="" style="endArrow=none;html=1;rounded=0;startArrow=none;startFill=0;endFill=0;strokeWidth=4;fillColor=#fff2cc;strokeColor=#d6b656;jumpStyle=arc;entryX=0.5;entryY=0;entryDx=0;entryDy=0;" edge="1" parent="1" target="9jK7fkdce40cgkQCztjO-40">
          <mxGeometry width="50" height="50" relative="1" as="geometry">
            <mxPoint x="227" y="60" as="sourcePoint" />
            <mxPoint x="230" y="214" as="targetPoint" />
          </mxGeometry>
        </mxCell>
        <mxCell id="9jK7fkdce40cgkQCztjO-44" value="172.17.0.0/16" style="text;html=1;align=center;verticalAlign=middle;resizable=0;points=[];autosize=1;strokeColor=none;fillColor=none;" vertex="1" parent="1">
          <mxGeometry x="-811" y="45" width="100" height="30" as="geometry" />
        </mxCell>
        <mxCell id="9jK7fkdce40cgkQCztjO-45" value="VXLAN 4096" style="text;html=1;align=center;verticalAlign=middle;resizable=0;points=[];autosize=1;strokeColor=none;fillColor=none;" vertex="1" parent="1">
          <mxGeometry x="-702" y="32" width="90" height="30" as="geometry" />
        </mxCell>
        <object label="マシン" id="ExSx5SIZApUU_Iw7rpWn-6">
          <mxCell style="locked=1;" parent="0" />
        </object>
        <mxCell id="4jGIObLVKQul48obEb4T-24" value="" style="rounded=1;whiteSpace=wrap;html=1;fillColor=#dae8fc;strokeColor=#6c8ebf;arcSize=7;" parent="ExSx5SIZApUU_Iw7rpWn-6" vertex="1">
          <mxGeometry x="-667" y="190" width="1240" height="890" as="geometry" />
        </mxCell>
        <mxCell id="4jGIObLVKQul48obEb4T-26" value="enp1s0" style="rounded=0;whiteSpace=wrap;html=1;fillColor=#e3c800;fontColor=#000000;strokeColor=#B09500;" parent="ExSx5SIZApUU_Iw7rpWn-6" vertex="1">
          <mxGeometry x="-614" y="180" width="80" height="20" as="geometry" />
        </mxCell>
        <mxCell id="4jGIObLVKQul48obEb4T-27" value="172.16.0.11" style="text;html=1;align=center;verticalAlign=middle;resizable=0;points=[];autosize=1;strokeColor=none;fillColor=none;" parent="ExSx5SIZApUU_Iw7rpWn-6" vertex="1">
          <mxGeometry x="-664" y="150" width="90" height="30" as="geometry" />
        </mxCell>
        <mxCell id="4jGIObLVKQul48obEb4T-29" value="enp2s0" style="rounded=0;whiteSpace=wrap;html=1;fillColor=#e3c800;fontColor=#000000;strokeColor=#B09500;" parent="ExSx5SIZApUU_Iw7rpWn-6" vertex="1">
          <mxGeometry x="446" y="180" width="80" height="20" as="geometry" />
        </mxCell>
        <mxCell id="4jGIObLVKQul48obEb4T-30" value="10.0.0.11" style="text;html=1;align=center;verticalAlign=middle;resizable=0;points=[];autosize=1;strokeColor=none;fillColor=none;" parent="ExSx5SIZApUU_Iw7rpWn-6" vertex="1">
          <mxGeometry x="414" y="150" width="70" height="30" as="geometry" />
        </mxCell>
        <mxCell id="21zLahzKs5m0MUraH8DA-1" value="&lt;font style=&quot;font-size: 17px;&quot;&gt;Controller Node&lt;/font&gt;" style="text;html=1;align=center;verticalAlign=middle;resizable=0;points=[];autosize=1;strokeColor=none;fillColor=none;" parent="ExSx5SIZApUU_Iw7rpWn-6" vertex="1">
          <mxGeometry x="406" y="1030" width="140" height="30" as="geometry" />
        </mxCell>
        <mxCell id="21zLahzKs5m0MUraH8DA-2" value="cni0" style="rounded=0;whiteSpace=wrap;html=1;fillColor=#B39D00;fontColor=#000000;strokeColor=#B09500;" parent="ExSx5SIZApUU_Iw7rpWn-6" vertex="1">
          <mxGeometry x="-122" y="445" width="150" height="40" as="geometry" />
        </mxCell>
        <mxCell id="21zLahzKs5m0MUraH8DA-6" value="veth5abaf068" style="rounded=0;whiteSpace=wrap;html=1;fillColor=#e3c800;fontColor=#000000;strokeColor=#B09500;" parent="ExSx5SIZApUU_Iw7rpWn-6" vertex="1">
          <mxGeometry x="-436" y="455" width="110" height="20" as="geometry" />
        </mxCell>
        <mxCell id="kA4qiDeY3TN-oHJTK4xy-3" value="veth0715fe81" style="rounded=0;whiteSpace=wrap;html=1;fillColor=#e3c800;fontColor=#000000;strokeColor=#B09500;" parent="ExSx5SIZApUU_Iw7rpWn-6" vertex="1">
          <mxGeometry x="174" y="455" width="110" height="20" as="geometry" />
        </mxCell>
        <mxCell id="kA4qiDeY3TN-oHJTK4xy-8" value="" style="endArrow=none;html=1;rounded=0;startArrow=none;startFill=0;endFill=0;strokeWidth=4;fillColor=#d5e8d4;strokeColor=#82b366;jumpStyle=arc;entryX=0.5;entryY=0;entryDx=0;entryDy=0;exitX=0.5;exitY=1;exitDx=0;exitDy=0;" parent="ExSx5SIZApUU_Iw7rpWn-6" source="21zLahzKs5m0MUraH8DA-6" target="21zLahzKs5m0MUraH8DA-12" edge="1">
          <mxGeometry width="50" height="50" relative="1" as="geometry">
            <mxPoint x="-410" y="385" as="sourcePoint" />
            <mxPoint x="-410" y="465" as="targetPoint" />
          </mxGeometry>
        </mxCell>
        <mxCell id="kA4qiDeY3TN-oHJTK4xy-11" value="" style="endArrow=none;html=1;rounded=0;startArrow=none;startFill=0;endFill=0;strokeWidth=4;fillColor=#d5e8d4;strokeColor=#82b366;jumpStyle=arc;entryX=0.5;entryY=0;entryDx=0;entryDy=0;exitX=0.5;exitY=1;exitDx=0;exitDy=0;" parent="ExSx5SIZApUU_Iw7rpWn-6" source="kA4qiDeY3TN-oHJTK4xy-3" target="kA4qiDeY3TN-oHJTK4xy-7" edge="1">
          <mxGeometry width="50" height="50" relative="1" as="geometry">
            <mxPoint x="90" y="505" as="sourcePoint" />
            <mxPoint x="90" y="575" as="targetPoint" />
          </mxGeometry>
        </mxCell>
        <mxCell id="kA4qiDeY3TN-oHJTK4xy-12" value="" style="endArrow=none;html=1;rounded=0;startArrow=none;startFill=0;endFill=0;strokeWidth=4;fillColor=#d5e8d4;strokeColor=#82b366;jumpStyle=arc;entryX=1;entryY=0.5;entryDx=0;entryDy=0;exitX=0;exitY=0.5;exitDx=0;exitDy=0;" parent="ExSx5SIZApUU_Iw7rpWn-6" source="kA4qiDeY3TN-oHJTK4xy-3" target="21zLahzKs5m0MUraH8DA-2" edge="1">
          <mxGeometry width="50" height="50" relative="1" as="geometry">
            <mxPoint x="239" y="485" as="sourcePoint" />
            <mxPoint x="239" y="565" as="targetPoint" />
          </mxGeometry>
        </mxCell>
        <mxCell id="kA4qiDeY3TN-oHJTK4xy-13" value="" style="endArrow=none;html=1;rounded=0;startArrow=none;startFill=0;endFill=0;strokeWidth=4;fillColor=#d5e8d4;strokeColor=#82b366;jumpStyle=arc;entryX=1;entryY=0.5;entryDx=0;entryDy=0;exitX=0;exitY=0.5;exitDx=0;exitDy=0;" parent="ExSx5SIZApUU_Iw7rpWn-6" source="21zLahzKs5m0MUraH8DA-2" target="21zLahzKs5m0MUraH8DA-6" edge="1">
          <mxGeometry width="50" height="50" relative="1" as="geometry">
            <mxPoint x="184" y="475" as="sourcePoint" />
            <mxPoint x="38" y="475" as="targetPoint" />
          </mxGeometry>
        </mxCell>
        <mxCell id="kA4qiDeY3TN-oHJTK4xy-14" value="10.85.0.1" style="text;html=1;align=center;verticalAlign=middle;resizable=0;points=[];autosize=1;strokeColor=none;fillColor=none;" parent="ExSx5SIZApUU_Iw7rpWn-6" vertex="1">
          <mxGeometry x="-122" y="485" width="70" height="30" as="geometry" />
        </mxCell>
        <mxCell id="9jK7fkdce40cgkQCztjO-25" value="vethd88ea6d6" style="rounded=0;whiteSpace=wrap;html=1;fillColor=#e3c800;fontColor=#000000;strokeColor=#B09500;" vertex="1" parent="ExSx5SIZApUU_Iw7rpWn-6">
          <mxGeometry x="-436" y="687" width="110" height="20" as="geometry" />
        </mxCell>
        <mxCell id="9jK7fkdce40cgkQCztjO-26" value="veth7384dcc5" style="rounded=0;whiteSpace=wrap;html=1;fillColor=#e3c800;fontColor=#000000;strokeColor=#B09500;" vertex="1" parent="ExSx5SIZApUU_Iw7rpWn-6">
          <mxGeometry x="174" y="687" width="110" height="20" as="geometry" />
        </mxCell>
        <mxCell id="9jK7fkdce40cgkQCztjO-27" value="" style="endArrow=none;html=1;rounded=0;startArrow=none;startFill=0;endFill=0;strokeWidth=4;fillColor=#d5e8d4;strokeColor=#82b366;jumpStyle=arc;entryX=0.5;entryY=1;entryDx=0;entryDy=0;exitX=0.5;exitY=0;exitDx=0;exitDy=0;" edge="1" parent="ExSx5SIZApUU_Iw7rpWn-6" source="9jK7fkdce40cgkQCztjO-4" target="9jK7fkdce40cgkQCztjO-25">
          <mxGeometry width="50" height="50" relative="1" as="geometry">
            <mxPoint x="-371" y="485" as="sourcePoint" />
            <mxPoint x="-371" y="525" as="targetPoint" />
          </mxGeometry>
        </mxCell>
        <mxCell id="9jK7fkdce40cgkQCztjO-28" value="" style="endArrow=none;html=1;rounded=0;startArrow=none;startFill=0;endFill=0;strokeWidth=4;fillColor=#d5e8d4;strokeColor=#82b366;jumpStyle=arc;entryX=0.5;entryY=0;entryDx=0;entryDy=0;exitX=0.5;exitY=1;exitDx=0;exitDy=0;" edge="1" parent="ExSx5SIZApUU_Iw7rpWn-6" source="9jK7fkdce40cgkQCztjO-26" target="9jK7fkdce40cgkQCztjO-8">
          <mxGeometry width="50" height="50" relative="1" as="geometry">
            <mxPoint x="239" y="485" as="sourcePoint" />
            <mxPoint x="239" y="525" as="targetPoint" />
          </mxGeometry>
        </mxCell>
        <mxCell id="9jK7fkdce40cgkQCztjO-29" value="" style="endArrow=none;html=1;rounded=0;startArrow=none;startFill=0;endFill=0;strokeWidth=4;fillColor=#d5e8d4;strokeColor=#82b366;jumpStyle=arc;entryX=1;entryY=0.5;entryDx=0;entryDy=0;exitX=0;exitY=0.5;exitDx=0;exitDy=0;" edge="1" parent="ExSx5SIZApUU_Iw7rpWn-6" source="9jK7fkdce40cgkQCztjO-26" target="9jK7fkdce40cgkQCztjO-25">
          <mxGeometry width="50" height="50" relative="1" as="geometry">
            <mxPoint x="-66" y="705.89" as="sourcePoint" />
            <mxPoint x="-270" y="705.89" as="targetPoint" />
          </mxGeometry>
        </mxCell>
        <mxCell id="9jK7fkdce40cgkQCztjO-30" value="" style="endArrow=none;html=1;rounded=0;startArrow=none;startFill=0;endFill=0;strokeWidth=4;fillColor=#d5e8d4;strokeColor=#82b366;jumpStyle=arc;entryX=0.5;entryY=1;entryDx=0;entryDy=0;" edge="1" parent="ExSx5SIZApUU_Iw7rpWn-6" target="21zLahzKs5m0MUraH8DA-2">
          <mxGeometry width="50" height="50" relative="1" as="geometry">
            <mxPoint x="-47" y="695" as="sourcePoint" />
            <mxPoint x="-316" y="707" as="targetPoint" />
          </mxGeometry>
        </mxCell>
        <mxCell id="9jK7fkdce40cgkQCztjO-31" value="cali08f307b1b2e" style="rounded=0;whiteSpace=wrap;html=1;fillColor=#e3c800;fontColor=#000000;strokeColor=#B09500;" vertex="1" parent="ExSx5SIZApUU_Iw7rpWn-6">
          <mxGeometry x="-446" y="180" width="110" height="20" as="geometry" />
        </mxCell>
        <mxCell id="9jK7fkdce40cgkQCztjO-32" value="cali2c1e705494b" style="rounded=0;whiteSpace=wrap;html=1;fillColor=#e3c800;fontColor=#000000;strokeColor=#B09500;" vertex="1" parent="ExSx5SIZApUU_Iw7rpWn-6">
          <mxGeometry x="23" y="180" width="110" height="20" as="geometry" />
        </mxCell>
        <mxCell id="9jK7fkdce40cgkQCztjO-34" value="" style="endArrow=none;html=1;rounded=0;startArrow=none;startFill=0;endFill=0;strokeWidth=4;fillColor=#fff2cc;strokeColor=#d6b656;jumpStyle=arc;entryX=0.5;entryY=1;entryDx=0;entryDy=0;exitX=0.5;exitY=0;exitDx=0;exitDy=0;" edge="1" parent="ExSx5SIZApUU_Iw7rpWn-6" source="9jK7fkdce40cgkQCztjO-20" target="9jK7fkdce40cgkQCztjO-31">
          <mxGeometry width="50" height="50" relative="1" as="geometry">
            <mxPoint x="-47" y="-1" as="sourcePoint" />
            <mxPoint x="-47" y="-211" as="targetPoint" />
          </mxGeometry>
        </mxCell>
        <mxCell id="9jK7fkdce40cgkQCztjO-35" value="" style="endArrow=none;html=1;rounded=0;startArrow=none;startFill=0;endFill=0;strokeWidth=4;fillColor=#fff2cc;strokeColor=#d6b656;jumpStyle=arc;entryX=0.5;entryY=1;entryDx=0;entryDy=0;exitX=0.5;exitY=0;exitDx=0;exitDy=0;" edge="1" parent="ExSx5SIZApUU_Iw7rpWn-6" source="9jK7fkdce40cgkQCztjO-24" target="9jK7fkdce40cgkQCztjO-32">
          <mxGeometry width="50" height="50" relative="1" as="geometry">
            <mxPoint x="-381" y="274" as="sourcePoint" />
            <mxPoint x="-381" y="240" as="targetPoint" />
          </mxGeometry>
        </mxCell>
        <mxCell id="9jK7fkdce40cgkQCztjO-40" value="vxlan.calico" style="rounded=0;whiteSpace=wrap;html=1;fillColor=#e3c800;fontColor=#000000;strokeColor=#B09500;" vertex="1" parent="ExSx5SIZApUU_Iw7rpWn-6">
          <mxGeometry x="174" y="180" width="106" height="20" as="geometry" />
        </mxCell>
        <mxCell id="9jK7fkdce40cgkQCztjO-42" value="" style="endArrow=none;html=1;rounded=0;startArrow=none;startFill=0;endFill=0;strokeWidth=4;fillColor=#dae8fc;strokeColor=#6c8ebf;jumpStyle=arc;entryX=1;entryY=0.5;entryDx=0;entryDy=0;exitX=0;exitY=0.5;exitDx=0;exitDy=0;dashed=1;dashPattern=1 1;" edge="1" parent="ExSx5SIZApUU_Iw7rpWn-6" source="4jGIObLVKQul48obEb4T-29" target="9jK7fkdce40cgkQCztjO-40">
          <mxGeometry width="50" height="50" relative="1" as="geometry">
            <mxPoint x="184" y="250" as="sourcePoint" />
            <mxPoint x="38" y="250" as="targetPoint" />
          </mxGeometry>
        </mxCell>
        <mxCell id="9jK7fkdce40cgkQCztjO-50" value="172.17.0.2" style="text;html=1;align=center;verticalAlign=middle;resizable=0;points=[];autosize=1;strokeColor=none;fillColor=none;" vertex="1" parent="ExSx5SIZApUU_Iw7rpWn-6">
          <mxGeometry x="145" y="150" width="80" height="30" as="geometry" />
        </mxCell>
        <mxCell id="9jK7fkdce40cgkQCztjO-53" value="" style="endArrow=none;html=1;rounded=0;startArrow=none;startFill=0;endFill=0;strokeWidth=4;fillColor=#fff2cc;strokeColor=#d6b656;jumpStyle=arc;entryX=0.5;entryY=0;entryDx=0;entryDy=0;" edge="1" parent="ExSx5SIZApUU_Iw7rpWn-6">
          <mxGeometry width="50" height="50" relative="1" as="geometry">
            <mxPoint x="77.44" y="60" as="sourcePoint" />
            <mxPoint x="77.44" y="180" as="targetPoint" />
          </mxGeometry>
        </mxCell>
        <mxCell id="9jK7fkdce40cgkQCztjO-54" value="" style="endArrow=none;html=1;rounded=0;startArrow=none;startFill=0;endFill=0;strokeWidth=4;fillColor=#fff2cc;strokeColor=#d6b656;jumpStyle=arc;entryX=0.5;entryY=0;entryDx=0;entryDy=0;" edge="1" parent="ExSx5SIZApUU_Iw7rpWn-6">
          <mxGeometry width="50" height="50" relative="1" as="geometry">
            <mxPoint x="-391.56" y="60" as="sourcePoint" />
            <mxPoint x="-391.56" y="180" as="targetPoint" />
          </mxGeometry>
        </mxCell>
        <object label="NW名前空間" id="21zLahzKs5m0MUraH8DA-9">
          <mxCell style="locked=1;" parent="0" />
        </object>
        <mxCell id="21zLahzKs5m0MUraH8DA-10" value="" style="rounded=1;whiteSpace=wrap;html=1;fillColor=#b8d2fa;strokeColor=#6c8ebf;align=center;horizontal=1;" parent="21zLahzKs5m0MUraH8DA-9" vertex="1">
          <mxGeometry x="-620" y="515" width="544" height="140" as="geometry" />
        </mxCell>
        <mxCell id="21zLahzKs5m0MUraH8DA-11" value="&lt;font style=&quot;font-size: 17px;&quot;&gt;19be561a-e22f-4e6d-8562-5abf81ac1183&lt;/font&gt;" style="text;html=1;align=center;verticalAlign=middle;resizable=0;points=[];autosize=1;strokeColor=none;fillColor=none;" parent="21zLahzKs5m0MUraH8DA-9" vertex="1">
          <mxGeometry x="-426" y="615" width="340" height="30" as="geometry" />
        </mxCell>
        <mxCell id="21zLahzKs5m0MUraH8DA-14" value="10.85.0.2" style="text;html=1;align=center;verticalAlign=middle;resizable=0;points=[];autosize=1;strokeColor=none;fillColor=none;" parent="21zLahzKs5m0MUraH8DA-9" vertex="1">
          <mxGeometry x="-450" y="485" width="70" height="30" as="geometry" />
        </mxCell>
        <mxCell id="21zLahzKs5m0MUraH8DA-12" value="eth0" style="rounded=0;whiteSpace=wrap;html=1;fillColor=#e3c800;fontColor=#000000;strokeColor=#B09500;" parent="21zLahzKs5m0MUraH8DA-9" vertex="1">
          <mxGeometry x="-436" y="515" width="110" height="20" as="geometry" />
        </mxCell>
        <mxCell id="kA4qiDeY3TN-oHJTK4xy-4" value="" style="rounded=1;whiteSpace=wrap;html=1;fillColor=#b8d2fa;strokeColor=#6c8ebf;align=center;horizontal=1;" parent="21zLahzKs5m0MUraH8DA-9" vertex="1">
          <mxGeometry x="-10" y="515" width="544" height="140" as="geometry" />
        </mxCell>
        <mxCell id="kA4qiDeY3TN-oHJTK4xy-5" value="&lt;font style=&quot;font-size: 17px;&quot;&gt;4cfbb0ee-341e-4786-b6b7-3d9804b5979c&lt;/font&gt;" style="text;html=1;align=center;verticalAlign=middle;resizable=0;points=[];autosize=1;strokeColor=none;fillColor=none;" parent="21zLahzKs5m0MUraH8DA-9" vertex="1">
          <mxGeometry x="184" y="615" width="340" height="30" as="geometry" />
        </mxCell>
        <mxCell id="kA4qiDeY3TN-oHJTK4xy-6" value="10.85.0.3" style="text;html=1;align=center;verticalAlign=middle;resizable=0;points=[];autosize=1;strokeColor=none;fillColor=none;" parent="21zLahzKs5m0MUraH8DA-9" vertex="1">
          <mxGeometry x="230" y="485" width="70" height="30" as="geometry" />
        </mxCell>
        <mxCell id="kA4qiDeY3TN-oHJTK4xy-7" value="eth0" style="rounded=0;whiteSpace=wrap;html=1;fillColor=#e3c800;fontColor=#000000;strokeColor=#B09500;" parent="21zLahzKs5m0MUraH8DA-9" vertex="1">
          <mxGeometry x="174" y="515" width="110" height="20" as="geometry" />
        </mxCell>
        <mxCell id="9jK7fkdce40cgkQCztjO-1" value="" style="rounded=1;whiteSpace=wrap;html=1;fillColor=#b8d2fa;strokeColor=#6c8ebf;align=center;horizontal=1;" vertex="1" parent="21zLahzKs5m0MUraH8DA-9">
          <mxGeometry x="-620" y="745" width="544" height="140" as="geometry" />
        </mxCell>
        <mxCell id="9jK7fkdce40cgkQCztjO-2" value="&lt;font style=&quot;font-size: 17px;&quot;&gt;14906b81-4240-48fc-9102-5ef63f726e6d&lt;/font&gt;" style="text;html=1;align=center;verticalAlign=middle;resizable=0;points=[];autosize=1;strokeColor=none;fillColor=none;" vertex="1" parent="21zLahzKs5m0MUraH8DA-9">
          <mxGeometry x="-421" y="845" width="330" height="30" as="geometry" />
        </mxCell>
        <mxCell id="9jK7fkdce40cgkQCztjO-4" value="eth0" style="rounded=0;whiteSpace=wrap;html=1;fillColor=#e3c800;fontColor=#000000;strokeColor=#B09500;" vertex="1" parent="21zLahzKs5m0MUraH8DA-9">
          <mxGeometry x="-436" y="745" width="110" height="20" as="geometry" />
        </mxCell>
        <mxCell id="9jK7fkdce40cgkQCztjO-5" value="" style="rounded=1;whiteSpace=wrap;html=1;fillColor=#b8d2fa;strokeColor=#6c8ebf;align=center;horizontal=1;" vertex="1" parent="21zLahzKs5m0MUraH8DA-9">
          <mxGeometry x="-10" y="745" width="544" height="140" as="geometry" />
        </mxCell>
        <mxCell id="9jK7fkdce40cgkQCztjO-6" value="&lt;font style=&quot;font-size: 17px;&quot;&gt;4ac65615-8202-4403-9317-041a07f790af&lt;/font&gt;" style="text;html=1;align=center;verticalAlign=middle;resizable=0;points=[];autosize=1;strokeColor=none;fillColor=none;" vertex="1" parent="21zLahzKs5m0MUraH8DA-9">
          <mxGeometry x="184" y="845" width="340" height="30" as="geometry" />
        </mxCell>
        <mxCell id="9jK7fkdce40cgkQCztjO-8" value="eth0" style="rounded=0;whiteSpace=wrap;html=1;fillColor=#e3c800;fontColor=#000000;strokeColor=#B09500;" vertex="1" parent="21zLahzKs5m0MUraH8DA-9">
          <mxGeometry x="174" y="745" width="110" height="20" as="geometry" />
        </mxCell>
        <mxCell id="9jK7fkdce40cgkQCztjO-17" value="" style="rounded=1;whiteSpace=wrap;html=1;fillColor=#b8d2fa;strokeColor=#6c8ebf;align=center;horizontal=1;" vertex="1" parent="21zLahzKs5m0MUraH8DA-9">
          <mxGeometry x="-630" y="264" width="544" height="140" as="geometry" />
        </mxCell>
        <mxCell id="9jK7fkdce40cgkQCztjO-18" value="&lt;font style=&quot;font-size: 17px;&quot;&gt;9ff894b9-33fa-45fc-bbd8-e2cb4695c073&lt;/font&gt;" style="text;html=1;align=center;verticalAlign=middle;resizable=0;points=[];autosize=1;strokeColor=none;fillColor=none;" vertex="1" parent="21zLahzKs5m0MUraH8DA-9">
          <mxGeometry x="-431" y="364" width="330" height="30" as="geometry" />
        </mxCell>
        <mxCell id="9jK7fkdce40cgkQCztjO-20" value="eth0" style="rounded=0;whiteSpace=wrap;html=1;fillColor=#e3c800;fontColor=#000000;strokeColor=#B09500;" vertex="1" parent="21zLahzKs5m0MUraH8DA-9">
          <mxGeometry x="-446" y="264" width="110" height="20" as="geometry" />
        </mxCell>
        <mxCell id="9jK7fkdce40cgkQCztjO-21" value="" style="rounded=1;whiteSpace=wrap;html=1;fillColor=#b8d2fa;strokeColor=#6c8ebf;align=center;horizontal=1;" vertex="1" parent="21zLahzKs5m0MUraH8DA-9">
          <mxGeometry x="-20" y="264" width="544" height="140" as="geometry" />
        </mxCell>
        <mxCell id="9jK7fkdce40cgkQCztjO-22" value="&lt;font style=&quot;font-size: 17px;&quot;&gt;5826d966-0b4f-4d9f-bfd3-81d2f72b58cd&lt;/font&gt;" style="text;html=1;align=center;verticalAlign=middle;resizable=0;points=[];autosize=1;strokeColor=none;fillColor=none;" vertex="1" parent="21zLahzKs5m0MUraH8DA-9">
          <mxGeometry x="179" y="364" width="330" height="30" as="geometry" />
        </mxCell>
        <mxCell id="9jK7fkdce40cgkQCztjO-24" value="eth0" style="rounded=0;whiteSpace=wrap;html=1;fillColor=#e3c800;fontColor=#000000;strokeColor=#B09500;" vertex="1" parent="21zLahzKs5m0MUraH8DA-9">
          <mxGeometry x="23" y="264" width="110" height="20" as="geometry" />
        </mxCell>
        <mxCell id="9jK7fkdce40cgkQCztjO-47" value="10.85.0.4" style="text;html=1;align=center;verticalAlign=middle;resizable=0;points=[];autosize=1;strokeColor=none;fillColor=none;" vertex="1" parent="21zLahzKs5m0MUraH8DA-9">
          <mxGeometry x="-450" y="715" width="70" height="30" as="geometry" />
        </mxCell>
        <mxCell id="9jK7fkdce40cgkQCztjO-49" value="10.85.0.5" style="text;html=1;align=center;verticalAlign=middle;resizable=0;points=[];autosize=1;strokeColor=none;fillColor=none;" vertex="1" parent="21zLahzKs5m0MUraH8DA-9">
          <mxGeometry x="227" y="715" width="70" height="30" as="geometry" />
        </mxCell>
        <mxCell id="9jK7fkdce40cgkQCztjO-55" value="172.17.2.2" style="text;html=1;align=center;verticalAlign=middle;resizable=0;points=[];autosize=1;strokeColor=none;fillColor=none;" vertex="1" parent="21zLahzKs5m0MUraH8DA-9">
          <mxGeometry x="75" y="234" width="80" height="30" as="geometry" />
        </mxCell>
        <mxCell id="9jK7fkdce40cgkQCztjO-56" value="172.17.2.1" style="text;html=1;align=center;verticalAlign=middle;resizable=0;points=[];autosize=1;strokeColor=none;fillColor=none;" vertex="1" parent="21zLahzKs5m0MUraH8DA-9">
          <mxGeometry x="-388" y="234" width="80" height="30" as="geometry" />
        </mxCell>
        <mxCell id="kA4qiDeY3TN-oHJTK4xy-15" value="コンテナ" style="locked=1;" parent="0" />
        <mxCell id="kA4qiDeY3TN-oHJTK4xy-17" value="kube-apiserver-controller.home.local " style="aspect=fixed;sketch=0;html=1;dashed=0;whitespace=wrap;verticalLabelPosition=bottom;verticalAlign=top;fillColor=#2875E2;strokeColor=#ffffff;points=[[0.005,0.63,0],[0.1,0.2,0],[0.9,0.2,0],[0.5,0,0],[0.995,0.63,0],[0.72,0.99,0],[0.5,1,0],[0.28,0.99,0]];shape=mxgraph.kubernetes.icon2;prIcon=pod" parent="kA4qiDeY3TN-oHJTK4xy-15" vertex="1">
          <mxGeometry x="-340" y="907" width="50" height="48" as="geometry" />
        </mxCell>
        <mxCell id="kA4qiDeY3TN-oHJTK4xy-18" value="coredns-7c65d6cfc9-sr5mk" style="aspect=fixed;sketch=0;html=1;dashed=0;whitespace=wrap;verticalLabelPosition=bottom;verticalAlign=top;fillColor=#2875E2;strokeColor=#ffffff;points=[[0.005,0.63,0],[0.1,0.2,0],[0.9,0.2,0],[0.5,0,0],[0.995,0.63,0],[0.72,0.99,0],[0.5,1,0],[0.28,0.99,0]];shape=mxgraph.kubernetes.icon2;prIcon=pod" parent="kA4qiDeY3TN-oHJTK4xy-15" vertex="1">
          <mxGeometry x="-530" y="555" width="50" height="48" as="geometry" />
        </mxCell>
        <mxCell id="kA4qiDeY3TN-oHJTK4xy-20" value="coredns-7c65d6cfc9-zczmd" style="aspect=fixed;sketch=0;html=1;dashed=0;whitespace=wrap;verticalLabelPosition=bottom;verticalAlign=top;fillColor=#2875E2;strokeColor=#ffffff;points=[[0.005,0.63,0],[0.1,0.2,0],[0.9,0.2,0],[0.5,0,0],[0.995,0.63,0],[0.72,0.99,0],[0.5,1,0],[0.28,0.99,0]];shape=mxgraph.kubernetes.icon2;prIcon=pod" parent="kA4qiDeY3TN-oHJTK4xy-15" vertex="1">
          <mxGeometry x="90" y="550" width="50" height="48" as="geometry" />
        </mxCell>
        <mxCell id="kA4qiDeY3TN-oHJTK4xy-21" value="etcd-controller.home.local" style="aspect=fixed;sketch=0;html=1;dashed=0;whitespace=wrap;verticalLabelPosition=bottom;verticalAlign=top;fillColor=#2875E2;strokeColor=#ffffff;points=[[0.005,0.63,0],[0.1,0.2,0],[0.9,0.2,0],[0.5,0,0],[0.995,0.63,0],[0.72,0.99,0],[0.5,1,0],[0.28,0.99,0]];shape=mxgraph.kubernetes.icon2;prIcon=pod" parent="kA4qiDeY3TN-oHJTK4xy-15" vertex="1">
          <mxGeometry x="-560" y="907" width="50" height="48" as="geometry" />
        </mxCell>
        <mxCell id="kA4qiDeY3TN-oHJTK4xy-22" value="kube-controller-manager-controller.home.local" style="aspect=fixed;sketch=0;html=1;dashed=0;whitespace=wrap;verticalLabelPosition=bottom;verticalAlign=top;fillColor=#2875E2;strokeColor=#ffffff;points=[[0.005,0.63,0],[0.1,0.2,0],[0.9,0.2,0],[0.5,0,0],[0.995,0.63,0],[0.72,0.99,0],[0.5,1,0],[0.28,0.99,0]];shape=mxgraph.kubernetes.icon2;prIcon=pod" parent="kA4qiDeY3TN-oHJTK4xy-15" vertex="1">
          <mxGeometry x="-80" y="907" width="50" height="48" as="geometry" />
        </mxCell>
        <mxCell id="kA4qiDeY3TN-oHJTK4xy-23" value="kube-proxy-7zqsq" style="aspect=fixed;sketch=0;html=1;dashed=0;whitespace=wrap;verticalLabelPosition=bottom;verticalAlign=top;fillColor=#2875E2;strokeColor=#ffffff;points=[[0.005,0.63,0],[0.1,0.2,0],[0.9,0.2,0],[0.5,0,0],[0.995,0.63,0],[0.72,0.99,0],[0.5,1,0],[0.28,0.99,0]];shape=mxgraph.kubernetes.icon2;prIcon=pod" parent="kA4qiDeY3TN-oHJTK4xy-15" vertex="1">
          <mxGeometry x="140" y="907" width="50" height="48" as="geometry" />
        </mxCell>
        <mxCell id="kA4qiDeY3TN-oHJTK4xy-24" value="kube-scheduler-controller.home.local" style="aspect=fixed;sketch=0;html=1;dashed=0;whitespace=wrap;verticalLabelPosition=bottom;verticalAlign=top;fillColor=#2875E2;strokeColor=#ffffff;points=[[0.005,0.63,0],[0.1,0.2,0],[0.9,0.2,0],[0.5,0,0],[0.995,0.63,0],[0.72,0.99,0],[0.5,1,0],[0.28,0.99,0]];shape=mxgraph.kubernetes.icon2;prIcon=pod" parent="kA4qiDeY3TN-oHJTK4xy-15" vertex="1">
          <mxGeometry x="320" y="907" width="50" height="48" as="geometry" />
        </mxCell>
        <mxCell id="9jK7fkdce40cgkQCztjO-57" value="calico-apiserver-556c4b7b69-tdbq5" style="aspect=fixed;sketch=0;html=1;dashed=0;whitespace=wrap;verticalLabelPosition=bottom;verticalAlign=top;fillColor=#2875E2;strokeColor=#ffffff;points=[[0.005,0.63,0],[0.1,0.2,0],[0.9,0.2,0],[0.5,0,0],[0.995,0.63,0],[0.72,0.99,0],[0.5,1,0],[0.28,0.99,0]];shape=mxgraph.kubernetes.icon2;prIcon=pod" vertex="1" parent="kA4qiDeY3TN-oHJTK4xy-15">
          <mxGeometry x="90" y="300" width="50" height="48" as="geometry" />
        </mxCell>
        <mxCell id="9jK7fkdce40cgkQCztjO-58" value="calico-apiserver-556c4b7b69-h9mng" style="aspect=fixed;sketch=0;html=1;dashed=0;whitespace=wrap;verticalLabelPosition=bottom;verticalAlign=top;fillColor=#2875E2;strokeColor=#ffffff;points=[[0.005,0.63,0],[0.1,0.2,0],[0.9,0.2,0],[0.5,0,0],[0.995,0.63,0],[0.72,0.99,0],[0.5,1,0],[0.28,0.99,0]];shape=mxgraph.kubernetes.icon2;prIcon=pod" vertex="1" parent="kA4qiDeY3TN-oHJTK4xy-15">
          <mxGeometry x="-530" y="300" width="50" height="48" as="geometry" />
        </mxCell>
        <mxCell id="9jK7fkdce40cgkQCztjO-59" value="calico-kube-controllers-9b679fd48-8kzvc" style="aspect=fixed;sketch=0;html=1;dashed=0;whitespace=wrap;verticalLabelPosition=bottom;verticalAlign=top;fillColor=#2875E2;strokeColor=#ffffff;points=[[0.005,0.63,0],[0.1,0.2,0],[0.9,0.2,0],[0.5,0,0],[0.995,0.63,0],[0.72,0.99,0],[0.5,1,0],[0.28,0.99,0]];shape=mxgraph.kubernetes.icon2;prIcon=pod" vertex="1" parent="kA4qiDeY3TN-oHJTK4xy-15">
          <mxGeometry x="90" y="770" width="50" height="48" as="geometry" />
        </mxCell>
        <mxCell id="9jK7fkdce40cgkQCztjO-60" value="calico-node-xhj6c" style="aspect=fixed;sketch=0;html=1;dashed=0;whitespace=wrap;verticalLabelPosition=bottom;verticalAlign=top;fillColor=#2875E2;strokeColor=#ffffff;points=[[0.005,0.63,0],[0.1,0.2,0],[0.9,0.2,0],[0.5,0,0],[0.995,0.63,0],[0.72,0.99,0],[0.5,1,0],[0.28,0.99,0]];shape=mxgraph.kubernetes.icon2;prIcon=pod" vertex="1" parent="kA4qiDeY3TN-oHJTK4xy-15">
          <mxGeometry x="-560" y="990" width="50" height="48" as="geometry" />
        </mxCell>
        <mxCell id="9jK7fkdce40cgkQCztjO-61" value="calico-typha-865684d4d7-rdgqp" style="aspect=fixed;sketch=0;html=1;dashed=0;whitespace=wrap;verticalLabelPosition=bottom;verticalAlign=top;fillColor=#2875E2;strokeColor=#ffffff;points=[[0.005,0.63,0],[0.1,0.2,0],[0.9,0.2,0],[0.5,0,0],[0.995,0.63,0],[0.72,0.99,0],[0.5,1,0],[0.28,0.99,0]];shape=mxgraph.kubernetes.icon2;prIcon=pod" vertex="1" parent="kA4qiDeY3TN-oHJTK4xy-15">
          <mxGeometry x="-340" y="990" width="50" height="48" as="geometry" />
        </mxCell>
        <mxCell id="9jK7fkdce40cgkQCztjO-62" value="csi-node-driver-zsc2j" style="aspect=fixed;sketch=0;html=1;dashed=0;whitespace=wrap;verticalLabelPosition=bottom;verticalAlign=top;fillColor=#2875E2;strokeColor=#ffffff;points=[[0.005,0.63,0],[0.1,0.2,0],[0.9,0.2,0],[0.5,0,0],[0.995,0.63,0],[0.72,0.99,0],[0.5,1,0],[0.28,0.99,0]];shape=mxgraph.kubernetes.icon2;prIcon=pod" vertex="1" parent="kA4qiDeY3TN-oHJTK4xy-15">
          <mxGeometry x="-530" y="770" width="50" height="48" as="geometry" />
        </mxCell>
        <mxCell id="9jK7fkdce40cgkQCztjO-63" value="tigera-operator-6847585ccf-rwszb" style="aspect=fixed;sketch=0;html=1;dashed=0;whitespace=wrap;verticalLabelPosition=bottom;verticalAlign=top;fillColor=#2875E2;strokeColor=#ffffff;points=[[0.005,0.63,0],[0.1,0.2,0],[0.9,0.2,0],[0.5,0,0],[0.995,0.63,0],[0.72,0.99,0],[0.5,1,0],[0.28,0.99,0]];shape=mxgraph.kubernetes.icon2;prIcon=pod" vertex="1" parent="kA4qiDeY3TN-oHJTK4xy-15">
          <mxGeometry x="-80" y="990" width="50" height="48" as="geometry" />
        </mxCell>
      </root>
    </mxGraphModel>
  </diagram>
</mxfile>
